<svg width="21" height="20" viewBox="0 0 21 20" fill="none" xmlns="http://www.w3.org/2000/svg">
<path d="M5.32771 16.5249L4.38254 17.2304C4.38254 17.2304 3.45998 17.2485 3.3017 17.2304C3.28135 17.0563 3.27909 16.1563 3.27909 16.1563L3.96196 15.1953C3.96196 15.1953 1.31866 16.1156 0.599609 20.0003L0.604132 19.9935C4.4662 19.1817 5.32545 16.5204 5.32545 16.5204L5.32771 16.5249Z" fill="#F39800"/>
<path d="M7.85835 8.6582L5.79617 11.4847H4.46887L2.54688 12.9816C2.54688 12.9816 2.94258 10.2953 5.20374 8.6582H7.86061H7.85835Z" fill="#3A8CA2"/>
<path d="M11.8734 12.8184L9.06053 14.9009L9.06957 16.2305L7.58398 18.1615C7.58398 18.1615 10.2657 17.7477 11.8915 15.4752L11.8734 12.8184Z" fill="#3A8CA2"/>
<path d="M11.5566 4.71453C5.84264 10.0373 4.9834 13.264 4.9834 13.264L6.12303 14.5574L6.13207 14.5664L6.13885 14.5755L7.45485 15.6857C7.45485 15.6857 10.6612 14.7609 15.8664 8.93839C15.8664 8.93839 18.8828 5.66874 20.4 0C14.7652 1.6303 11.5566 4.71453 11.5566 4.71453Z" fill="#6ABED4"/>
<path d="M13.9787 8.27376C14.8741 8.27376 15.5999 7.5479 15.5999 6.65251C15.5999 5.75711 14.8741 5.03125 13.9787 5.03125C13.0833 5.03125 12.3574 5.75711 12.3574 6.65251C12.3574 7.5479 13.0833 8.27376 13.9787 8.27376Z" fill="white"/>
<path d="M4.56574 15.6678C4.56574 15.6678 8.66297 11.2586 8.88909 11.0596H9.51091L9.36845 11.6068L4.75115 15.8555H4.56348V15.6678H4.56574Z" fill="#3A8CA2"/>
</svg>
