<svg width="41" height="41" viewBox="0 0 41 41" fill="none" xmlns="http://www.w3.org/2000/svg">
<path d="M33.6538 31.3307L26.4788 24.2057C26.1372 23.8664 25.6247 23.6967 25.1122 23.6967C26.4788 22.0003 27.333 19.6253 27.333 17.2503C27.333 11.6521 22.7205 7.07178 17.083 7.07178C11.4455 7.07178 6.83301 11.6521 6.83301 17.2503C6.83301 22.8485 11.4455 27.4289 17.083 27.4289C19.4747 27.4289 21.8663 26.5807 23.5747 25.0539C23.5747 25.5628 23.5747 26.0717 24.0872 26.411L31.2622 33.536C31.6038 33.8753 32.1163 34.0449 32.458 34.0449C32.7997 34.0449 33.3122 33.8753 33.6538 33.536C34.3372 33.0271 34.3372 32.0092 33.6538 31.3307ZM17.083 24.8842C12.8122 24.8842 9.39551 21.4914 9.39551 17.2503C9.39551 13.0093 12.8122 9.61642 17.083 9.61642C21.3538 9.61642 24.7705 13.0093 24.7705 17.2503C24.7705 21.4914 21.3538 24.8842 17.083 24.8842Z" fill="#395C1E"/>
</svg>
