<svg width="24" height="22" viewBox="0 0 24 22" fill="none" xmlns="http://www.w3.org/2000/svg">
<path d="M20.3698 17.0636L15.7776 12.6121C16.5393 11.5217 16.9489 10.2382 16.9489 8.89458C16.9489 7.11956 16.2359 5.44971 14.9407 4.1941C12.2659 1.60132 7.91512 1.60132 5.24262 4.1941C3.94734 5.44971 3.23438 7.11956 3.23438 8.89458C3.23438 10.6696 3.94734 12.3395 5.24262 13.5951C6.57998 14.8915 8.33581 15.5397 10.0916 15.5397C11.4312 15.5397 12.7708 15.1619 13.9266 14.4064L18.521 18.86C19.0125 19.3365 19.8074 19.3365 20.2989 18.86L20.372 18.7892C20.8635 18.3127 20.8635 17.5422 20.372 17.0657L20.3698 17.0636ZM6.02422 12.8353C4.93707 11.7814 4.33924 10.382 4.33924 8.89244C4.33924 7.40287 4.93707 6.00346 6.02422 4.94961C7.14459 3.86356 8.61922 3.31839 10.0916 3.31839C11.5641 3.31839 13.0365 3.86141 14.1591 4.94961C15.2462 6.00346 15.844 7.40287 15.844 8.89244C15.844 10.382 15.2462 11.7814 14.1591 12.8353C11.9161 15.0095 8.26717 15.0095 6.02643 12.8353H6.02422Z" fill="#677CC3"/>
</svg>
