<svg width="26" height="27" viewBox="0 0 26 27" fill="none" xmlns="http://www.w3.org/2000/svg">
<path d="M21.3413 20.8055L16.7913 16.241C16.5747 16.0237 16.2497 15.915 15.9247 15.915C16.7913 14.8282 17.333 13.3068 17.333 11.7853C17.333 8.19893 14.408 5.26465 10.833 5.26465C7.25801 5.26465 4.33301 8.19893 4.33301 11.7853C4.33301 15.3716 7.25801 18.3059 10.833 18.3059C12.3497 18.3059 13.8663 17.7625 14.9497 16.7844C14.9497 17.1105 14.9497 17.4365 15.2747 17.6539L19.8247 22.2183C20.0413 22.4356 20.3663 22.5443 20.583 22.5443C20.7997 22.5443 21.1247 22.4356 21.3413 22.2183C21.7747 21.8923 21.7747 21.2402 21.3413 20.8055ZM10.833 16.6758C8.12467 16.6758 5.95801 14.5022 5.95801 11.7853C5.95801 9.06835 8.12467 6.89481 10.833 6.89481C13.5413 6.89481 15.708 9.06835 15.708 11.7853C15.708 14.5022 13.5413 16.6758 10.833 16.6758Z" fill="#A6C7B1"/>
</svg>
