<svg width="43" height="64" viewBox="0 0 43 64" fill="none" xmlns="http://www.w3.org/2000/svg">
<path d="M35.2962 53.7873L27.7712 46.2623C27.4128 45.904 26.8753 45.7248 26.3378 45.7248C27.7712 43.9332 28.667 41.4248 28.667 38.9165C28.667 33.004 23.8295 28.1665 17.917 28.1665C12.0045 28.1665 7.16699 33.004 7.16699 38.9165C7.16699 44.829 12.0045 49.6665 17.917 49.6665C20.4253 49.6665 22.9337 48.7707 24.7253 47.1582C24.7253 47.6957 24.7253 48.2332 25.2628 48.5915L32.7878 56.1165C33.1462 56.4748 33.6837 56.654 34.042 56.654C34.4003 56.654 34.9378 56.4748 35.2962 56.1165C36.0128 55.579 36.0128 54.504 35.2962 53.7873ZM17.917 46.979C13.4378 46.979 9.85449 43.3957 9.85449 38.9165C9.85449 34.4373 13.4378 30.854 17.917 30.854C22.3962 30.854 25.9795 34.4373 25.9795 38.9165C25.9795 43.3957 22.3962 46.979 17.917 46.979Z" fill="white"/>
</svg>
