<svg width="18" height="18" viewBox="0 0 18 18" fill="none" xmlns="http://www.w3.org/2000/svg">
<path d="M8.17513 1.20359C8.57234 0.624013 9.42766 0.624014 9.82487 1.20359L12.3257 4.85257C12.4557 5.0423 12.6472 5.18141 12.8678 5.24645L17.111 6.49726C17.7849 6.69593 18.0492 7.50939 17.6208 8.06626L14.9232 11.5723C14.7829 11.7546 14.7098 11.9796 14.7161 12.2096L14.8377 16.6316C14.8571 17.334 14.1651 17.8367 13.5031 17.6013L9.33505 16.1191C9.11833 16.0421 8.88167 16.0421 8.66495 16.1191L4.49693 17.6013C3.83492 17.8367 3.14295 17.334 3.16226 16.6316L3.28388 12.2096C3.29021 11.9796 3.21708 11.7546 3.07681 11.5723L0.379216 8.06626C-0.0492465 7.5094 0.215064 6.69593 0.889013 6.49726L5.1322 5.24645C5.35282 5.18141 5.54429 5.0423 5.67432 4.85257L8.17513 1.20359Z" fill="#FFCB1E"/>
</svg>
