<svg width="512" height="220" viewBox="0 0 512 220" fill="none" xmlns="http://www.w3.org/2000/svg">
<rect width="512" height="220" fill="#FEFEFE" fill-opacity="0.9"/>
<path d="M486.37 113.121L477.843 103.737C476.826 102.612 476.267 101.171 476.267 99.6716V55.3736C476.267 47.6759 469.889 41.4341 462.024 41.4341H413.243C405.378 41.4341 399 47.6759 399 55.3736V103.117C399 110.815 405.378 117.056 413.243 117.056H484.574C486.665 117.056 487.77 114.649 486.385 113.121H486.37ZM435.395 104.256L413.847 93.9487V68.3184L435.395 78.6253V104.256ZM416.468 64.5561L437.619 54.2348L458.769 64.5561L437.619 74.8918L416.468 64.5561ZM461.376 93.9487L439.828 104.256V78.6253L461.376 68.3184V93.9487Z" fill="#5E5E5E"/>
<path d="M446.411 41.417L437.618 54.2177L460.359 41.417H446.411Z" fill="black"/>
<path d="M410.621 36.6479L437.619 54.2201L475.751 22.9535L459.182 17L437.619 41.4194L423.627 29.9016L410.621 36.6479Z" fill="#9BD66D"/>
<path d="M56 54.3904L66.7775 61L82 49.2393L75.3853 47L66.7775 56.1851L61.1918 51.8528L56 54.3904Z" fill="#599829"/>
<path d="M95 54.3904L105.777 61L121 49.2393L114.385 47L105.777 56.1851L100.192 51.8528L95 54.3904Z" fill="#599829"/>
<path d="M58.5575 65.0351V63H66.8344V65.0351H73.3853V71.9677H52V65.0351H58.5509H58.5575ZM52.0067 80.7744C52.0067 76.6968 54.7056 73.1903 59.3839 73.1903H66.0081C70.6863 73.1903 73.3853 76.6968 73.3853 80.7744C73.3853 84.852 70.6863 88.3586 66.0081 88.3586H59.3839C54.7056 88.3586 52.0067 84.852 52.0067 80.7744ZM60.6434 89.5811V92.0262C60.6434 93.4903 61.5097 94.4713 62.8026 94.4713H83.6814V101.404H60.2835C55.532 101.404 52.3665 97.8168 52.3665 92.4362V89.5811H60.6434ZM61.3631 81.8286H64.0288C64.6419 81.8286 65.0751 81.4626 65.0751 80.7671C65.0751 80.0717 64.6419 79.7056 64.0288 79.7056H61.3631C60.75 79.7056 60.3169 80.0717 60.3169 80.7671C60.3169 81.4626 60.75 81.8286 61.3631 81.8286ZM75.0446 64.2152H83.3215V73.3879H86.5603V81.5431H83.3215V90.3937H75.0446V64.2152Z" fill="#9BD66D"/>
<path d="M89.4463 64.2163H111.118V71.1489H109.139V78.9746H112.484V64.2163H120.761V70.9439H124V79.0991H120.761V89.1722H112.484V85.9073H89.4463V78.9746H91.4255V71.1489H89.4463V64.2163ZM98.083 87.9497V90.8047C98.083 92.2689 98.9494 93.2498 100.242 93.2498H121.121V101.405H97.7232C92.9716 101.405 89.8061 97.8179 89.8061 92.4372V87.9497H98.083ZM99.3426 78.982H101.215V71.1562H99.3426V78.982Z" fill="#8CCB5D"/>
<path d="M126.899 89.97H145.335V92.28H126.899V89.97ZM129.143 97.252H143.267V99.606H129.143V97.252ZM129.143 93.644H132.069V98H129.143V93.644ZM136.117 80.18C137.598 80.18 138.889 80.3487 139.989 80.686C141.103 81.0233 141.969 81.5073 142.585 82.138C143.201 82.7687 143.509 83.5093 143.509 84.36C143.509 85.2253 143.201 85.9733 142.585 86.604C141.969 87.2347 141.103 87.7187 139.989 88.056C138.889 88.3933 137.598 88.562 136.117 88.562C134.65 88.562 133.359 88.3933 132.245 88.056C131.145 87.7187 130.287 87.2347 129.671 86.604C129.055 85.9733 128.747 85.2253 128.747 84.36C128.747 83.5093 129.055 82.7687 129.671 82.138C130.287 81.5073 131.145 81.0233 132.245 80.686C133.359 80.3487 134.65 80.18 136.117 80.18ZM136.117 82.49C135.222 82.49 134.445 82.5633 133.785 82.71C133.125 82.8567 132.626 83.0693 132.289 83.348C131.951 83.612 131.783 83.9493 131.783 84.36C131.783 84.7707 131.951 85.1153 132.289 85.394C132.626 85.6727 133.125 85.8853 133.785 86.032C134.445 86.1787 135.222 86.252 136.117 86.252C137.041 86.252 137.825 86.1787 138.471 86.032C139.116 85.8853 139.607 85.6727 139.945 85.394C140.297 85.1153 140.473 84.7707 140.473 84.36C140.473 83.9493 140.297 83.612 139.945 83.348C139.607 83.0693 139.116 82.8567 138.471 82.71C137.825 82.5633 137.041 82.49 136.117 82.49ZM152.383 81.302H165.275V83.634H152.383V81.302ZM150.491 95.118H168.927V97.494H150.491V95.118ZM157.003 88.122H159.951V96.306H157.003V88.122ZM164.219 81.302H167.167V83.238C167.167 84.0887 167.152 84.9907 167.123 85.944C167.108 86.8973 167.042 87.9533 166.925 89.112C166.822 90.2707 166.631 91.5687 166.353 93.006L163.427 92.698C163.837 90.6593 164.072 88.8847 164.131 87.374C164.189 85.8487 164.219 84.47 164.219 83.238V81.302ZM184.413 79.564H187.207V91.488H184.413V79.564ZM181.949 84.272H185.183V86.626H181.949V84.272ZM179.969 79.938H182.697V91.444H179.969V79.938ZM173.083 92.346H187.207V99.958H184.281V94.656H173.083V92.346ZM175.723 80.994H178.649C178.649 82.6953 178.378 84.2207 177.835 85.57C177.292 86.9193 176.456 88.0927 175.327 89.09C174.198 90.0873 172.753 90.9307 170.993 91.62L169.607 89.508C171.074 88.9653 172.247 88.3347 173.127 87.616C174.022 86.8827 174.674 86.054 175.085 85.13C175.51 84.206 175.723 83.1867 175.723 82.072V80.994ZM170.597 80.994H176.669V83.304H170.597V80.994ZM203.199 79.564H206.125V90.982H203.199V79.564ZM190.351 80.752H193.255V89.134H190.351V80.752ZM190.351 87.594H192.111C193.886 87.594 195.521 87.5427 197.017 87.44C198.528 87.3227 200.031 87.0953 201.527 86.758L201.879 89.112C200.324 89.464 198.762 89.706 197.193 89.838C195.638 89.9553 193.944 90.014 192.111 90.014H190.351V87.594ZM192.573 91.84H206.125V99.738H192.573V91.84ZM203.265 94.15H195.433V97.428H203.265V94.15ZM215.121 80.928C216.177 80.928 217.131 81.1407 217.981 81.566C218.832 81.9913 219.499 82.5853 219.983 83.348C220.467 84.096 220.709 84.9613 220.709 85.944C220.709 86.912 220.467 87.7773 219.983 88.54C219.499 89.3027 218.832 89.8967 217.981 90.322C217.131 90.7473 216.177 90.96 215.121 90.96C214.051 90.96 213.09 90.7473 212.239 90.322C211.389 89.8967 210.714 89.3027 210.215 88.54C209.731 87.7773 209.489 86.912 209.489 85.944C209.489 84.9613 209.731 84.096 210.215 83.348C210.714 82.5853 211.389 81.9913 212.239 81.566C213.09 81.1407 214.051 80.928 215.121 80.928ZM215.121 83.436C214.593 83.436 214.117 83.5387 213.691 83.744C213.281 83.9347 212.951 84.2207 212.701 84.602C212.467 84.9687 212.349 85.416 212.349 85.944C212.349 86.472 212.467 86.9267 212.701 87.308C212.951 87.6893 213.281 87.9827 213.691 88.188C214.117 88.3787 214.593 88.474 215.121 88.474C215.635 88.474 216.097 88.3787 216.507 88.188C216.918 87.9827 217.241 87.6893 217.475 87.308C217.725 86.9267 217.849 86.472 217.849 85.944C217.849 85.416 217.725 84.9687 217.475 84.602C217.241 84.2207 216.918 83.9347 216.507 83.744C216.097 83.5387 215.635 83.436 215.121 83.436ZM222.623 79.542H225.549V99.98H222.623V79.542ZM208.983 95.866L208.653 93.49C209.841 93.49 211.154 93.4827 212.591 93.468C214.043 93.4387 215.532 93.38 217.057 93.292C218.597 93.1893 220.086 93.0353 221.523 92.83L221.721 94.942C220.255 95.2353 218.766 95.448 217.255 95.58C215.745 95.6973 214.285 95.778 212.877 95.822C211.469 95.8513 210.171 95.866 208.983 95.866ZM246.722 79.586H249.494V91.312H246.722V79.586ZM242.63 79.938H245.358V91.114H242.63V79.938ZM240.166 84.36H243.4V86.714H240.166V84.36ZM232.84 81.06H240.892V90.146H232.84V81.06ZM238.186 83.282H235.568V87.946H238.186V83.282ZM235.678 92.148H249.494V99.738H235.678V92.148ZM246.634 94.436H238.56V97.428H246.634V94.436ZM265.662 79.542H268.588V99.98H265.662V79.542ZM261.042 86.714H266.498V89.068H261.042V86.714ZM252.242 81.148H255.146V86.098H259.15V81.148H262.032V95.184H252.242V81.148ZM255.146 88.364V92.852H259.15V88.364H255.146ZM275.626 80.18H278.046V82.05C278.046 83.3113 277.833 84.5067 277.408 85.636C276.983 86.7507 276.33 87.726 275.45 88.562C274.585 89.398 273.485 90.014 272.15 90.41L270.742 88.122C271.593 87.858 272.326 87.5133 272.942 87.088C273.558 86.6627 274.064 86.1787 274.46 85.636C274.856 85.0787 275.149 84.4993 275.34 83.898C275.531 83.2967 275.626 82.6807 275.626 82.05V80.18ZM276.22 80.18H278.596V82.05C278.596 82.6513 278.691 83.2453 278.882 83.832C279.073 84.4187 279.359 84.9687 279.74 85.482C280.121 85.9807 280.613 86.428 281.214 86.824C281.815 87.22 282.527 87.5353 283.348 87.77L281.94 90.058C280.972 89.7793 280.129 89.376 279.41 88.848C278.691 88.32 278.09 87.704 277.606 87C277.137 86.296 276.785 85.526 276.55 84.69C276.33 83.854 276.22 82.974 276.22 82.05V80.18ZM284.844 79.586H287.77V90.52H284.844V79.586ZM274.24 91.422H277.122V93.314H284.866V91.422H287.77V99.738H274.24V91.422ZM277.122 95.558V97.406H284.866V95.558H277.122ZM299.428 79.85C301.746 79.85 303.55 80.1507 304.84 80.752C306.146 81.3533 306.798 82.2187 306.798 83.348C306.798 84.4627 306.146 85.3207 304.84 85.922C303.55 86.5233 301.746 86.824 299.428 86.824C297.096 86.824 295.278 86.5233 293.972 85.922C292.682 85.3207 292.036 84.4627 292.036 83.348C292.036 82.2187 292.682 81.3533 293.972 80.752C295.278 80.1507 297.096 79.85 299.428 79.85ZM299.406 82.006C298.438 82.006 297.632 82.0573 296.986 82.16C296.341 82.248 295.857 82.3947 295.534 82.6C295.226 82.7907 295.072 83.04 295.072 83.348C295.072 83.656 295.226 83.9127 295.534 84.118C295.857 84.3087 296.341 84.448 296.986 84.536C297.632 84.624 298.438 84.668 299.406 84.668C300.389 84.668 301.203 84.624 301.848 84.536C302.494 84.448 302.97 84.3087 303.278 84.118C303.586 83.9127 303.74 83.656 303.74 83.348C303.74 83.04 303.586 82.7907 303.278 82.6C302.97 82.3947 302.494 82.248 301.848 82.16C301.203 82.0573 300.389 82.006 299.406 82.006ZM290.188 87.77H308.624V90.08H290.188V87.77ZM292.3 91.224H306.38V96.438H295.226V98.242H292.322V94.414H303.498V93.38H292.3V91.224ZM292.322 97.604H306.93V99.826H292.322V97.604ZM326.87 79.586H329.796V94.568H326.87V79.586ZM328.982 85.306H332.502V87.726H328.982V85.306ZM316.662 97.252H330.522V99.606H316.662V97.252ZM316.662 93.072H319.61V97.758H316.662V93.072ZM314.352 81.038H317.256V83.942H321.26V81.038H324.142V91.378H314.352V81.038ZM317.256 86.186V89.068H321.26V86.186H317.256ZM342.137 82.226H348.165V84.58H342.137V82.226ZM342.137 86.758H348.165V89.09H342.137V86.758ZM338.749 80.664C339.775 80.664 340.692 80.884 341.499 81.324C342.305 81.7493 342.943 82.336 343.413 83.084C343.897 83.832 344.139 84.69 344.139 85.658C344.139 86.6113 343.897 87.462 343.413 88.21C342.943 88.958 342.305 89.552 341.499 89.992C340.692 90.4173 339.775 90.63 338.749 90.63C337.751 90.63 336.842 90.4173 336.021 89.992C335.214 89.552 334.569 88.958 334.085 88.21C333.615 87.462 333.381 86.6113 333.381 85.658C333.381 84.69 333.615 83.832 334.085 83.084C334.569 82.336 335.214 81.7493 336.021 81.324C336.842 80.884 337.751 80.664 338.749 80.664ZM338.749 83.128C338.265 83.128 337.825 83.2307 337.429 83.436C337.033 83.6267 336.717 83.9127 336.483 84.294C336.263 84.6607 336.153 85.1153 336.153 85.658C336.153 86.1713 336.263 86.6187 336.483 87C336.717 87.3813 337.033 87.6747 337.429 87.88C337.825 88.0707 338.265 88.166 338.749 88.166C339.262 88.166 339.709 88.0707 340.091 87.88C340.487 87.6747 340.795 87.3813 341.015 87C341.235 86.6187 341.345 86.1713 341.345 85.658C341.345 85.1153 341.235 84.6607 341.015 84.294C340.795 83.9127 340.487 83.6267 340.091 83.436C339.709 83.2307 339.262 83.128 338.749 83.128ZM347.241 79.586H350.189V91.51H347.241V79.586ZM343.281 91.928C344.718 91.928 345.95 92.0893 346.977 92.412C348.018 92.72 348.825 93.1747 349.397 93.776C349.969 94.3773 350.255 95.096 350.255 95.932C350.255 96.768 349.969 97.4867 349.397 98.088C348.825 98.704 348.018 99.166 346.977 99.474C345.95 99.7967 344.718 99.958 343.281 99.958C341.843 99.958 340.604 99.7967 339.563 99.474C338.521 99.166 337.715 98.704 337.143 98.088C336.585 97.4867 336.307 96.768 336.307 95.932C336.307 95.096 336.585 94.3773 337.143 93.776C337.715 93.1747 338.521 92.72 339.563 92.412C340.604 92.0893 341.843 91.928 343.281 91.928ZM343.281 94.172C342.401 94.172 341.653 94.238 341.037 94.37C340.421 94.502 339.959 94.7 339.651 94.964C339.343 95.2133 339.189 95.536 339.189 95.932C339.189 96.328 339.343 96.658 339.651 96.922C339.959 97.186 340.421 97.384 341.037 97.516C341.653 97.6333 342.401 97.692 343.281 97.692C344.175 97.692 344.923 97.6333 345.525 97.516C346.141 97.384 346.603 97.186 346.911 96.922C347.219 96.658 347.373 96.328 347.373 95.932C347.373 95.536 347.219 95.2133 346.911 94.964C346.603 94.7 346.141 94.502 345.525 94.37C344.923 94.238 344.175 94.172 343.281 94.172ZM352.475 82.644H362.221V84.954H352.475V82.644ZM357.381 85.878C358.246 85.878 359.009 86.0833 359.669 86.494C360.344 86.9047 360.872 87.4767 361.253 88.21C361.649 88.9287 361.847 89.7647 361.847 90.718C361.847 91.6713 361.649 92.5147 361.253 93.248C360.872 93.9667 360.344 94.5313 359.669 94.942C359.009 95.3527 358.246 95.558 357.381 95.558C356.516 95.558 355.746 95.3527 355.071 94.942C354.396 94.5313 353.868 93.9667 353.487 93.248C353.106 92.5147 352.915 91.6713 352.915 90.718C352.915 89.7647 353.106 88.9287 353.487 88.21C353.868 87.4767 354.396 86.9047 355.071 86.494C355.76 86.0833 356.53 85.878 357.381 85.878ZM357.381 88.298C357.029 88.298 356.706 88.3933 356.413 88.584C356.12 88.7747 355.892 89.0533 355.731 89.42C355.57 89.772 355.489 90.2047 355.489 90.718C355.489 91.2313 355.57 91.6713 355.731 92.038C355.892 92.4047 356.12 92.6833 356.413 92.874C356.706 93.05 357.029 93.138 357.381 93.138C357.748 93.138 358.07 93.05 358.349 92.874C358.628 92.6833 358.848 92.4047 359.009 92.038C359.17 91.6713 359.251 91.2313 359.251 90.718C359.251 90.2047 359.17 89.772 359.009 89.42C358.848 89.0533 358.628 88.7747 358.349 88.584C358.07 88.3933 357.748 88.298 357.381 88.298ZM367.215 79.564H369.987V99.936H367.215V79.564ZM364.773 87.858H368.117V90.212H364.773V87.858ZM362.925 79.938H365.653V99.078H362.925V79.938ZM355.951 80.114H358.833V84.096H355.951V80.114ZM375.899 95.8125L375.813 96.6719C375.745 97.3594 375.615 98.0443 375.422 98.7266C375.235 99.4141 375.037 100.036 374.828 100.594C374.625 101.151 374.461 101.589 374.336 101.906H372.18C372.258 101.599 372.365 101.169 372.5 100.617C372.636 100.07 372.763 99.4557 372.883 98.7734C373.003 98.0911 373.078 97.3958 373.11 96.6875L373.149 95.8125H375.899Z" fill="#463B47"/>
<path d="M71.0406 137.798H73.3726V140.086C73.3726 141.259 73.248 142.411 72.9986 143.54C72.764 144.669 72.4046 145.733 71.9206 146.73C71.4513 147.713 70.8573 148.585 70.1386 149.348C69.42 150.096 68.584 150.69 67.6306 151.13L65.9586 148.82C66.8093 148.424 67.55 147.911 68.1806 147.28C68.826 146.649 69.354 145.945 69.7646 145.168C70.19 144.376 70.5053 143.547 70.7106 142.682C70.9306 141.802 71.0406 140.937 71.0406 140.086V137.798ZM71.6786 137.798H73.9886V140.086C73.9886 140.893 74.0913 141.714 74.2966 142.55C74.5166 143.371 74.832 144.156 75.2426 144.904C75.6533 145.637 76.174 146.297 76.8046 146.884C77.4353 147.471 78.1833 147.94 79.0486 148.292L77.4426 150.624C76.4746 150.199 75.6313 149.627 74.9126 148.908C74.194 148.189 73.5926 147.361 73.1086 146.422C72.6246 145.483 72.2653 144.479 72.0306 143.408C71.796 142.323 71.6786 141.215 71.6786 140.086V137.798ZM66.7726 136.522H78.2126V138.942H66.7726V136.522ZM80.1046 134.586H83.0306V154.958H80.1046V134.586ZM87.7589 135.488H100.651V137.798H87.7589V135.488ZM85.4929 142.814H103.951V145.124H85.4929V142.814ZM98.8909 135.488H101.773V137.116C101.773 137.981 101.751 138.913 101.707 139.91C101.663 140.907 101.487 142.066 101.179 143.386L98.2529 143.364C98.5756 142.029 98.7589 140.871 98.8029 139.888C98.8616 138.905 98.8909 137.981 98.8909 137.116V135.488ZM87.6489 147.258H101.685V154.738H87.6489V147.258ZM98.8249 149.546H90.5309V152.428H98.8249V149.546ZM113.551 135.268H115.949V136.566C115.949 137.857 115.744 139.074 115.333 140.218C114.922 141.347 114.292 142.33 113.441 143.166C112.59 143.987 111.505 144.611 110.185 145.036L108.777 142.704C109.906 142.352 110.823 141.861 111.527 141.23C112.231 140.599 112.744 139.888 113.067 139.096C113.39 138.289 113.551 137.446 113.551 136.566V135.268ZM114.145 135.268H116.521V136.5C116.521 137.336 116.675 138.135 116.983 138.898C117.306 139.646 117.804 140.313 118.479 140.9C119.168 141.472 120.048 141.919 121.119 142.242L119.667 144.508C118.406 144.112 117.364 143.525 116.543 142.748C115.736 141.971 115.135 141.047 114.739 139.976C114.343 138.905 114.145 137.747 114.145 136.5V135.268ZM122.153 134.586H125.079V145.036H122.153V134.586ZM123.913 138.546H127.763V140.922H123.913V138.546ZM111.637 145.806H125.079V151.328H114.563V153.792H111.659V149.194H122.197V148.072H111.637V145.806ZM111.659 152.538H125.673V154.826H111.659V152.538ZM144.523 135.158H147.075V136.126C147.075 136.903 146.95 137.659 146.701 138.392C146.466 139.111 146.114 139.785 145.645 140.416C145.176 141.047 144.604 141.611 143.929 142.11C143.254 142.609 142.47 143.034 141.575 143.386C140.695 143.723 139.727 143.98 138.671 144.156L137.527 141.802C138.466 141.685 139.302 141.487 140.035 141.208C140.783 140.929 141.436 140.599 141.993 140.218C142.565 139.837 143.034 139.419 143.401 138.964C143.768 138.509 144.046 138.04 144.237 137.556C144.428 137.072 144.523 136.595 144.523 136.126V135.158ZM145.073 135.158H147.625V136.126C147.625 136.595 147.72 137.072 147.911 137.556C148.102 138.04 148.38 138.509 148.747 138.964C149.114 139.419 149.576 139.837 150.133 140.218C150.705 140.599 151.358 140.929 152.091 141.208C152.839 141.487 153.682 141.685 154.621 141.802L153.477 144.156C152.406 143.98 151.431 143.723 150.551 143.386C149.671 143.034 148.894 142.609 148.219 142.11C147.544 141.597 146.972 141.025 146.503 140.394C146.034 139.763 145.674 139.089 145.425 138.37C145.19 137.651 145.073 136.903 145.073 136.126V135.158ZM144.523 147.478H147.449V154.958H144.523V147.478ZM136.845 145.63H155.281V148.006H136.845V145.63ZM164.991 146.95H167.191V147.632C167.191 148.659 167.03 149.634 166.707 150.558C166.384 151.482 165.886 152.296 165.211 153C164.551 153.719 163.686 154.269 162.615 154.65L161.207 152.516C162.102 152.208 162.828 151.797 163.385 151.284C163.942 150.771 164.346 150.199 164.595 149.568C164.859 148.923 164.991 148.277 164.991 147.632V146.95ZM165.717 146.95H167.807V147.632C167.807 148.277 167.924 148.93 168.159 149.59C168.408 150.235 168.782 150.829 169.281 151.372C169.794 151.915 170.469 152.355 171.305 152.692L170.117 154.87C169.046 154.459 168.188 153.873 167.543 153.11C166.898 152.362 166.428 151.511 166.135 150.558C165.856 149.59 165.717 148.615 165.717 147.632V146.95ZM172.405 146.95H174.495V147.632C174.495 148.571 174.348 149.517 174.055 150.47C173.776 151.423 173.314 152.289 172.669 153.066C172.038 153.843 171.188 154.445 170.117 154.87L168.929 152.692C169.75 152.325 170.418 151.863 170.931 151.306C171.444 150.734 171.818 150.133 172.053 149.502C172.288 148.857 172.405 148.233 172.405 147.632V146.95ZM173.087 146.95H175.287V147.632C175.287 148.321 175.412 148.989 175.661 149.634C175.925 150.279 176.336 150.851 176.893 151.35C177.45 151.849 178.176 152.237 179.071 152.516L177.663 154.65C176.592 154.283 175.72 153.748 175.045 153.044C174.37 152.355 173.872 151.548 173.549 150.624C173.241 149.685 173.087 148.688 173.087 147.632V146.95ZM174.407 134.586H177.333V146.114H174.407V134.586ZM166.245 135.62C167.301 135.62 168.247 135.833 169.083 136.258C169.919 136.669 170.579 137.241 171.063 137.974C171.547 138.707 171.789 139.551 171.789 140.504C171.789 141.457 171.547 142.301 171.063 143.034C170.579 143.767 169.919 144.347 169.083 144.772C168.247 145.183 167.301 145.388 166.245 145.388C165.189 145.388 164.243 145.183 163.407 144.772C162.571 144.347 161.911 143.767 161.427 143.034C160.943 142.301 160.701 141.457 160.701 140.504C160.701 139.551 160.943 138.707 161.427 137.974C161.911 137.241 162.571 136.669 163.407 136.258C164.243 135.833 165.189 135.62 166.245 135.62ZM166.245 138.04C165.746 138.04 165.292 138.143 164.881 138.348C164.47 138.539 164.148 138.817 163.913 139.184C163.678 139.536 163.561 139.976 163.561 140.504C163.561 141.017 163.678 141.465 163.913 141.846C164.148 142.213 164.47 142.491 164.881 142.682C165.292 142.873 165.746 142.968 166.245 142.968C166.758 142.968 167.213 142.873 167.609 142.682C168.02 142.491 168.342 142.213 168.577 141.846C168.812 141.465 168.929 141.017 168.929 140.504C168.929 139.976 168.812 139.536 168.577 139.184C168.342 138.817 168.02 138.539 167.609 138.348C167.213 138.143 166.758 138.04 166.245 138.04ZM182.039 140.064H196.163V142.396H182.039V140.064ZM179.773 144.508H198.209V146.84H179.773V144.508ZM182.039 135.29H184.965V141.23H182.039V135.29ZM181.863 152.164H196.273V154.518H181.863V152.164ZM181.863 148.446H184.789V152.802H181.863V148.446ZM313.327 136.236H323.051V146.092H313.327V136.236ZM320.169 138.568H316.209V143.782H320.169V138.568ZM325.845 134.586H328.771V149.436H325.845V134.586ZM327.957 140.46H331.477V142.858H327.957V140.46ZM315.637 152.252H329.497V154.606H315.637V152.252ZM315.637 147.984H318.585V153.44H315.637V147.984ZM338.415 135.312H351.329V137.622H338.415V135.312ZM336.369 142.22H354.695V144.486H336.369V142.22ZM343.145 139.272H346.071V143.342H343.145V139.272ZM349.613 135.312H352.539V136.544C352.539 137.145 352.517 137.849 352.473 138.656C352.444 139.448 352.341 140.35 352.165 141.362L349.261 141.164C349.437 140.167 349.54 139.294 349.569 138.546C349.599 137.798 349.613 137.123 349.613 136.522V135.312ZM338.371 145.718H352.561V151.218H341.319V153.418H338.393V149.216H349.635V147.984H338.371V145.718ZM338.393 152.538H353.089V154.804H338.393V152.538ZM368.73 134.542H371.656V154.98H368.73V134.542ZM370.996 142.264H374.582V144.662H370.996V142.264ZM356.52 147.852H358.214C359.372 147.852 360.458 147.837 361.47 147.808C362.482 147.779 363.464 147.72 364.418 147.632C365.386 147.529 366.368 147.397 367.366 147.236L367.63 149.59C366.603 149.766 365.591 149.905 364.594 150.008C363.611 150.096 362.599 150.162 361.558 150.206C360.516 150.25 359.402 150.272 358.214 150.272H356.52V147.852ZM356.476 136.28H365.848V144.178H359.402V148.776H356.52V141.868H362.944V138.634H356.476V136.28ZM377.198 143.98H391.52V146.29H377.198V143.98ZM375.042 150.118H393.5V152.494H375.042V150.118ZM377.198 136.236H391.366V138.612H380.102V144.948H377.198V136.236ZM408.524 134.542H411.428V154.98H408.524V134.542ZM405.158 138.898H409.008V141.23H405.158V138.898ZM395.082 148.05H396.71C397.722 148.05 398.683 148.043 399.592 148.028C400.501 147.999 401.411 147.947 402.32 147.874C403.229 147.801 404.175 147.691 405.158 147.544L405.378 149.92C404.381 150.081 403.413 150.199 402.474 150.272C401.55 150.345 400.619 150.397 399.68 150.426C398.741 150.455 397.751 150.47 396.71 150.47H395.082V148.05ZM395.06 136.28H404.146V144.156H397.986V148.6H395.082V141.868H401.264V138.59H395.06V136.28ZM405.114 144.442H408.964V146.774H405.114V144.442ZM417.806 144.926H420.732V150.624H417.806V144.926ZM425.198 144.926H428.124V150.624H425.198V144.926ZM413.758 150.206H432.216V152.582H413.758V150.206ZM422.954 135.576C424.421 135.576 425.726 135.803 426.87 136.258C428.029 136.713 428.931 137.351 429.576 138.172C430.236 138.979 430.566 139.939 430.566 141.054C430.566 142.154 430.236 143.115 429.576 143.936C428.931 144.743 428.029 145.373 426.87 145.828C425.726 146.283 424.421 146.51 422.954 146.51C421.502 146.51 420.197 146.283 419.038 145.828C417.894 145.373 416.992 144.743 416.332 143.936C415.672 143.115 415.342 142.154 415.342 141.054C415.342 139.939 415.672 138.979 416.332 138.172C416.992 137.351 417.894 136.713 419.038 136.258C420.197 135.803 421.502 135.576 422.954 135.576ZM422.954 137.842C422.016 137.842 421.187 137.974 420.468 138.238C419.764 138.487 419.214 138.847 418.818 139.316C418.422 139.785 418.224 140.365 418.224 141.054C418.224 141.714 418.422 142.286 418.818 142.77C419.214 143.239 419.764 143.606 420.468 143.87C421.187 144.119 422.016 144.244 422.954 144.244C423.908 144.244 424.736 144.119 425.44 143.87C426.159 143.606 426.709 143.239 427.09 142.77C427.486 142.286 427.684 141.714 427.684 141.054C427.684 140.365 427.486 139.785 427.09 139.316C426.709 138.847 426.159 138.487 425.44 138.238C424.736 137.974 423.908 137.842 422.954 137.842ZM435.488 153.203C434.972 153.203 434.53 153.021 434.16 152.656C433.795 152.286 433.613 151.844 433.613 151.328C433.613 150.818 433.795 150.38 434.16 150.016C434.53 149.651 434.972 149.469 435.488 149.469C435.988 149.469 436.426 149.651 436.801 150.016C437.176 150.38 437.363 150.818 437.363 151.328C437.363 151.672 437.275 151.987 437.097 152.273C436.926 152.555 436.699 152.781 436.418 152.953C436.137 153.12 435.827 153.203 435.488 153.203Z" fill="#463B47"/>
<path d="M208.801 135.384H211.441V137.256C211.441 138.648 211.209 139.976 210.745 141.24C210.297 142.488 209.609 143.584 208.681 144.528C207.753 145.456 206.569 146.152 205.129 146.616L203.497 144.12C204.745 143.72 205.753 143.16 206.521 142.44C207.305 141.72 207.881 140.912 208.249 140.016C208.617 139.104 208.801 138.184 208.801 137.256V135.384ZM209.473 135.384H212.065V137.256C212.065 137.912 212.169 138.568 212.377 139.224C212.585 139.864 212.897 140.48 213.313 141.072C213.745 141.648 214.289 142.168 214.945 142.632C215.601 143.096 216.377 143.472 217.273 143.76L215.665 146.232C214.273 145.784 213.121 145.112 212.209 144.216C211.297 143.32 210.609 142.272 210.145 141.072C209.697 139.856 209.473 138.584 209.473 137.256V135.384ZM204.361 134.472H216.457V137.016H204.361V134.472ZM218.689 132.912H221.881V148.944H218.689V132.912ZM207.073 152.184H222.457V154.752H207.073V152.184ZM207.073 147.504H210.265V153.456H207.073V147.504ZM239.519 132.912H242.687V155.136H239.519V132.912ZM241.199 141.24H245.111V143.88H241.199V141.24ZM227.183 136.536H229.487V138.384C229.487 139.584 229.439 140.776 229.343 141.96C229.263 143.128 229.103 144.248 228.863 145.32C228.623 146.376 228.271 147.344 227.807 148.224C227.359 149.088 226.759 149.816 226.007 150.408L224.039 148.104C224.727 147.576 225.279 146.952 225.695 146.232C226.111 145.496 226.423 144.696 226.631 143.832C226.855 142.968 226.999 142.08 227.063 141.168C227.143 140.24 227.183 139.312 227.183 138.384V136.536ZM227.903 136.536H230.183V138.384C230.183 139.232 230.215 140.112 230.279 141.024C230.359 141.936 230.511 142.84 230.735 143.736C230.959 144.616 231.287 145.448 231.719 146.232C232.167 147 232.759 147.68 233.495 148.272L231.791 150.624C230.975 150 230.303 149.224 229.775 148.296C229.263 147.368 228.871 146.352 228.599 145.248C228.327 144.144 228.143 143.008 228.047 141.84C227.951 140.656 227.903 139.504 227.903 138.384V136.536ZM233.447 136.536H235.703V138.384C235.703 139.52 235.647 140.68 235.535 141.864C235.439 143.032 235.255 144.168 234.983 145.272C234.727 146.376 234.335 147.392 233.807 148.32C233.295 149.232 232.623 150 231.791 150.624L230.135 148.272C230.855 147.68 231.431 147 231.863 146.232C232.311 145.464 232.647 144.64 232.871 143.76C233.095 142.88 233.247 141.984 233.327 141.072C233.407 140.144 233.447 139.248 233.447 138.384V136.536ZM234.143 136.536H236.471V138.384C236.471 139.312 236.503 140.24 236.567 141.168C236.647 142.096 236.791 142.992 236.999 143.856C237.223 144.72 237.543 145.512 237.959 146.232C238.375 146.952 238.927 147.576 239.615 148.104L237.647 150.408C236.895 149.816 236.287 149.088 235.823 148.224C235.359 147.36 235.007 146.4 234.767 145.344C234.527 144.272 234.359 143.144 234.263 141.96C234.183 140.776 234.143 139.584 234.143 138.384V136.536ZM224.879 134.808H231.431V137.352H224.879V134.808ZM232.175 134.808H238.391V137.352H232.175V134.808ZM255.171 144.984H258.363V149.568H255.171V144.984ZM255.147 137.064H257.691V137.544C257.691 138.792 257.459 139.96 256.995 141.048C256.547 142.136 255.867 143.08 254.955 143.88C254.043 144.68 252.875 145.272 251.451 145.656L250.035 143.184C251.219 142.88 252.187 142.44 252.939 141.864C253.691 141.272 254.243 140.608 254.595 139.872C254.963 139.12 255.147 138.344 255.147 137.544V137.064ZM255.819 137.064H258.387V137.544C258.387 138.312 258.563 139.056 258.915 139.776C259.283 140.496 259.843 141.136 260.595 141.696C261.363 142.256 262.339 142.688 263.523 142.992L262.107 145.44C260.699 145.072 259.523 144.504 258.579 143.736C257.651 142.952 256.955 142.032 256.491 140.976C256.043 139.904 255.819 138.76 255.819 137.544V137.064ZM250.683 135.504H262.875V138.024H250.683V135.504ZM255.171 133.08H258.363V136.632H255.171V133.08ZM264.819 132.864H268.011V155.16H264.819V132.864ZM249.939 151.032L249.579 148.44C250.875 148.44 252.307 148.432 253.875 148.416C255.459 148.384 257.083 148.32 258.747 148.224C260.427 148.112 262.051 147.944 263.619 147.72L263.835 150.048C262.235 150.352 260.611 150.576 258.963 150.72C257.315 150.864 255.723 150.952 254.187 150.984C252.651 151 251.235 151.016 249.939 151.032ZM286.057 132.864H289.249V155.16H286.057V132.864ZM282.169 140.64H286.801V143.208H282.169V140.64ZM275.713 136.392H278.257V138.384C278.257 139.728 278.129 141.048 277.873 142.344C277.617 143.64 277.233 144.848 276.721 145.968C276.225 147.088 275.593 148.08 274.825 148.944C274.057 149.808 273.161 150.504 272.137 151.032L270.265 148.512C271.193 148.08 272.001 147.504 272.689 146.784C273.377 146.048 273.945 145.232 274.393 144.336C274.841 143.424 275.169 142.464 275.377 141.456C275.601 140.432 275.713 139.408 275.713 138.384V136.392ZM276.457 136.392H278.953V138.384C278.953 139.36 279.057 140.336 279.265 141.312C279.489 142.272 279.825 143.192 280.273 144.072C280.737 144.936 281.313 145.712 282.001 146.4C282.689 147.088 283.497 147.648 284.425 148.08L282.577 150.576C281.521 150.08 280.609 149.416 279.841 148.584C279.073 147.752 278.441 146.8 277.945 145.728C277.449 144.64 277.073 143.472 276.817 142.224C276.577 140.976 276.457 139.696 276.457 138.384V136.392ZM271.153 135.024H283.513V137.592H271.153V135.024ZM305.903 132.864H309.119V155.088H305.903V132.864ZM308.303 141.384H312.215V144H308.303V141.384ZM300.071 135.168H303.215C303.215 137.392 302.895 139.496 302.255 141.48C301.631 143.464 300.591 145.288 299.135 146.952C297.695 148.6 295.743 150.04 293.279 151.272L291.479 148.848C293.431 147.84 295.039 146.704 296.303 145.44C297.583 144.176 298.527 142.744 299.135 141.144C299.759 139.528 300.071 137.728 300.071 135.744V135.168ZM292.703 135.168H301.727V137.736H292.703V135.168Z" fill="#69BF2A"/>
<path d="M202.998 158H314" stroke="#71C82F" stroke-opacity="0.4"/>
</svg>
