<svg width="119" height="48" viewBox="0 0 119 48" fill="none" xmlns="http://www.w3.org/2000/svg">
<path d="M52.4857 13.6451V11.7227H60.7803V13.6451H67.3452V20.1939H45.9141V13.6451H52.479H52.4857ZM45.9207 28.5129C45.9207 24.6611 48.6255 21.3487 53.3138 21.3487H59.9522C64.6404 21.3487 67.3452 24.6611 67.3452 28.5129C67.3452 32.3647 64.6404 35.6771 59.9522 35.6771H53.3138C48.6255 35.6771 45.9207 32.3647 45.9207 28.5129ZM54.576 36.832V39.1417C54.576 40.5248 55.4442 41.4514 56.7398 41.4514H77.6634V48.0002H54.2154C49.4536 48.0002 46.2814 44.6117 46.2814 39.529V36.832H54.576ZM55.2973 29.5087H57.9687C58.5831 29.5087 59.0172 29.163 59.0172 28.506C59.0172 27.8491 58.5831 27.5033 57.9687 27.5033H55.2973C54.6829 27.5033 54.2488 27.8491 54.2488 28.506C54.2488 29.163 54.6829 29.5087 55.2973 29.5087ZM69.0081 12.8706H77.3027V21.5354H80.5485V29.239H77.3027V37.5996H69.0081V12.8706Z" fill="#535353"/>
<path d="M83.4404 12.8706H105.159V19.4194H103.175V26.8118H106.528V12.8706H114.822V19.2257H118.068V26.9294H114.822V36.4447H106.528V33.3605H83.4404V26.8118H85.4239V19.4194H83.4404V12.8706ZM92.0957 35.2899V37.9869C92.0957 39.3699 92.9639 40.2966 94.2595 40.2966H115.183V48.0002H91.7351C86.9733 48.0002 83.8011 44.6117 83.8011 39.529V35.2899H92.0957ZM93.3579 26.8187H95.2346V19.4263H93.3579V26.8187Z" fill="#404040"/>
<path d="M39.6165 46.1108L35.7497 41.609C35.2889 41.0696 35.0351 40.3781 35.0351 39.6589V18.4083C35.0351 14.7155 32.1433 11.7212 28.5771 11.7212H6.45806C2.89177 11.7212 0 14.7155 0 18.4083V41.3116C0 45.0044 2.89177 47.9987 6.45806 47.9987H38.8018C39.7501 47.9987 40.251 46.8438 39.6232 46.1108H39.6165ZM16.5024 41.8579L6.73187 36.9135V24.6182L16.5024 29.5626V41.8579ZM7.92063 22.8133L17.5109 17.8619L27.1011 22.8133L17.5109 27.7715L7.92063 22.8133ZM28.2832 36.9135L18.5126 41.8579V29.5626L28.2832 24.6182V36.9135Z" fill="#5E5E5E"/>
<path d="M21.4978 11.7144L17.5107 17.8551L27.8223 11.7144H21.4978Z" fill="black"/>
<path d="M5.26953 9.4255L17.5111 17.8552L34.8016 2.856L27.2884 0L17.5111 11.7145L11.1666 6.18916L5.26953 9.4255Z" fill="#9BD66D"/>
</svg>
