<svg width="154" height="33" viewBox="0 0 154 33" fill="none" xmlns="http://www.w3.org/2000/svg">
<path d="M150.903 0H76.9727V16.0881V32.5898H150.903C152.587 32.5898 154 31.4407 154 29.9698V12.0431V2.62006C154 1.14915 152.587 0 150.903 0Z" fill="#505FDC"/>
<path d="M38.5137 0V18.1106V32.5898H76.9728V16.0881V0H38.5137Z" fill="#1E9BF5"/>
<path d="M3.09629 0C1.35802 0 0 1.14915 0 2.62005V20.1331V30.0157C0 31.4407 1.35802 32.6358 3.09629 32.6358H38.5135V18.1106V0H3.09629Z" fill="#03C85A"/>
<path d="M38.5135 0H3.09629C1.35802 0 0 1.14915 0 2.62006V20.1331L38.5135 18.1106V0Z" fill="#03F05A"/>
<path d="M76.9728 16.0881V0H38.5137V18.1106L76.9728 16.0881Z" fill="#1EBAF5"/>
<path d="M150.903 0H76.9727V16.0881L153.945 12.0431V2.62005C154 1.14915 152.587 0 150.903 0Z" fill="#5091F0"/>
<path fill-rule="evenodd" clip-rule="evenodd" d="M29.2241 24.3157H23.4661L16.513 15.8121V24.3157H10.4834V8.45752H16.2414L23.1945 16.9612V8.45752H29.2241V24.3157Z" fill="white"/>
<path d="M61.0563 14.158V7.63086H55.8415V14.158H48.1279V18.5707H55.8415H61.0563H68.7698V14.158H61.0563Z" fill="white"/>
<path d="M55.8418 19.123V25.1446H61.0566V21.6052C61.0566 19.9964 58.4492 19.123 55.8418 19.123Z" fill="white"/>
<path d="M95.7676 16.8686V13.7889H98.0491V17.4202H100.765V8.22705H98.0491V11.4906H95.7676V8.41091H87.6738V16.8227H95.7676V16.8686ZM93.0516 10.7092V14.5703H90.3356V10.7092H93.0516Z" fill="white"/>
<path d="M105.056 24.6381V18.3867H88.5967V24.5921H105.056V24.6381ZM91.5843 22.4317V20.5931H102.123V22.4317H91.5843Z" fill="white"/>
<path d="M144.548 24.6366V17.4199H141.614V18.7989H131.674V17.4199H128.74V24.5906H144.548V24.6366ZM131.674 22.4302V20.8214H141.614V22.4302H131.674Z" fill="white"/>
<path d="M117.985 23.4413V15.4433H121.95V24.6365H124.775V8.18066H121.95V13.145H117.985V8.31856H115.16V13.1909H111.195V8.31856H108.37V23.4413H117.985ZM111.195 21.189V15.4892H115.16V21.143H111.195V21.189Z" fill="white"/>
<path d="M105.111 8.18066H102.395V17.3738H105.111V8.18066Z" fill="white"/>
<path d="M144.494 8.18066H141.561V16.6844H144.494V8.18066Z" fill="white"/>
<path d="M133.629 13.1457C134.009 13.6053 134.498 14.019 135.041 14.3868L138.409 16.5931L140.147 14.7545L135.802 11.9965C135.204 11.6288 134.878 11.0313 134.878 10.4337V8.36523H131.999V10.6176C131.999 11.1232 131.728 11.6288 131.239 11.9506L126.839 14.9843L128.686 16.9149L132.217 14.4787C132.76 14.065 133.249 13.6513 133.629 13.1457Z" fill="white"/>
</svg>
