<svg width="131" height="26" viewBox="0 0 131 26" fill="none" xmlns="http://www.w3.org/2000/svg">
<path d="M45.0555 0L43.5385 16.4041H47.1794L48.6964 0H45.0555Z" fill="#334DBC"/>
<path d="M36.2568 15.5482H40.0494C40.504 19.8535 42.3136 21.1414 47.1794 22.2525L45.6623 25.3907C41.8277 24.4762 39.9398 23.5939 37.6222 20.5408C34.7492 23.8485 32.606 24.5985 28.5201 25.3907L27.1547 22.5378C33.0375 21.299 35.0398 19.7806 36.2568 15.5482Z" fill="#334DBC"/>
<path d="M36.7119 6.84692H39.1392L39.746 0.427933H43.2351L42.1732 14.2644H38.5324L38.8358 9.6998H35.4983C33.2912 13.1989 31.4109 14.6192 27.1547 16.4041L25.1826 13.9791C28.1051 12.7716 29.6805 11.9975 31.7058 9.41452L26.2445 10.1277V7.13221L33.2228 6.84692C33.5238 6.22121 33.6909 5.83523 33.9813 4.99255H27.4581L27.7615 2.28231H37.6222C37.7071 4.1353 37.214 5.12123 36.7119 6.84692Z" fill="#334DBC"/>
<path d="M4.85445 1.42676H22.3001L21.845 9.98541H7.73679V12.553H21.845V15.5485H13.9566L13.6532 19.3999H23.6655V22.1102H0L0.303403 19.3999H10.0123L10.3157 15.5485H3.79254L4.39935 7.13252H18.0525V4.56493H4.39935L4.85445 1.42676Z" fill="#334DBC"/>
<path d="M70.9951 9.7002H74.332L74.0293 12.6963H70.6914L69.6299 25.1055H65.8369C66.7277 16.0646 67.236 10.8875 68.2646 0.000976562H72.0566L70.9951 9.7002ZM58.707 1.42676C65.2302 1.28411 69.1741 9.70067 59.7686 13.8369L59.4658 16.9746C60.9634 16.9851 62.5054 16.8858 65.3818 16.6895V19.6855C59.2596 20.2881 55.7682 20.469 49.4531 20.541V17.5459C51.5042 17.5078 52.7523 17.4985 55.5215 17.5459L55.8096 14.0166C47.4814 9.84206 52.184 1.56943 58.707 1.42676ZM58.5547 4.42188C57.9331 4.35213 55.3955 5.12489 55.0654 7.13281C54.7355 9.14064 55.7091 11.1123 59.0098 10.6982C62.3105 10.284 62.6056 4.62812 58.5547 4.42188Z" fill="#334DBC"/>
<path d="M98 16.7456H87.9883L87.2295 25.019H83.4375L84.1953 16.7456H74.335L74.6387 14.0356L98 13.7505V16.7456ZM86.168 0.912598C91.4774 0.484747 96.332 2.48129 96.332 6.04736C96.332 9.61349 93.449 12.1812 86.9258 12.1812C80.4029 12.1811 77.5205 10.0409 77.5205 7.04541C77.5208 4.05007 80.8587 1.34051 86.168 0.912598ZM92.6885 6.1333C92.6885 4.27897 88.7447 3.56535 85.8623 3.75146C82.98 3.9376 81.615 5.56241 81.7666 6.84619C81.9183 8.12999 83.587 9.02976 87.0762 9.17236C90.565 9.31485 92.6884 7.98751 92.6885 6.1333Z" fill="#334DBC"/>
<path d="M111.021 21.3732L109.817 22.1575C109.817 22.1575 108.643 22.1776 108.441 22.1575C108.415 21.9639 108.412 20.9634 108.412 20.9634L109.282 19.895C109.282 19.895 105.916 20.9182 105 25.237L105.006 25.2295C109.924 24.327 111.018 21.3682 111.018 21.3682L111.021 21.3732Z" fill="#F39800"/>
<path d="M114.243 12.627L111.616 15.7693H109.926L107.479 17.4335C107.479 17.4335 107.982 14.447 110.862 12.627H114.245H114.243Z" fill="#3A8CA2"/>
<path d="M119.358 17.2524L115.776 19.5677L115.787 21.0459L113.896 23.1927C113.896 23.1927 117.311 22.7327 119.381 20.2063L119.358 17.2524Z" fill="#3A8CA2"/>
<path d="M118.955 8.24145C111.678 14.1591 110.584 17.7464 110.584 17.7464L112.035 19.1844L112.047 19.1944L112.055 19.2045L113.731 20.4388C113.731 20.4388 117.814 19.4106 124.443 12.9374C124.443 12.9374 128.284 9.3023 130.217 3C123.041 4.81251 118.955 8.24145 118.955 8.24145Z" fill="#6ABED4"/>
<path d="M122.039 12.1991C123.179 12.1991 124.104 11.3922 124.104 10.3967C124.104 9.40122 123.179 8.59424 122.039 8.59424C120.899 8.59424 119.975 9.40122 119.975 10.3967C119.975 11.3922 120.899 12.1991 122.039 12.1991Z" fill="white"/>
<path d="M110.052 20.4177C110.052 20.4177 115.269 15.5157 115.557 15.2944H116.349L116.168 15.9028L110.288 20.6264H110.049V20.4177H110.052Z" fill="#3A8CA2"/>
</svg>
